<svg xmlns="http://www.w3.org/2000/svg" width="400" height="400"><defs><clipPath id="a"><path clip-rule="evenodd" d="M0 841V-.89h595.276V841H0z"/></clipPath><clipPath id="b"><path clip-rule="evenodd" d="M0-.89h595.276V841H0z"/></clipPath></defs><g clip-path="url(#a)" transform="scale(1.3333)"><g clip-path="url(#b)" font-size="7"><text x="136.80211 142.2522 147.70229 153.15237 158.60246 164.05255 169.50264" y="12.777" style="fill:#e50000;font-family:monospace">
                    -*#%%#=
                </text><text x="71.401054 76.85114 82.30123 87.75132 93.20141 98.6515 104.101585 125.90194 131.35202 136.80211 142.2522 147.70229 153.15237 158.60246 164.05255 169.50264 174.95273" y="23.277" style="fill:#e50000;font-family:monospace">
                    :=++=. :%@@@@@@@*
                </text><text x="60.500877 65.950966 71.401054 76.85114 82.30123 87.75132 93.20141 98.6515 104.101585 109.551674 120.45185 125.90194 131.35202 136.80211 142.2522 147.70229 153.15237 158.60246 164.05255 169.50264 174.95273 180.40282" y="33.777" style="fill:#e50000;font-family:monospace">
                    -%@@@@@@+ :@@@@@@@@@@.
                </text><text x="55.05079 60.500877 65.950966 71.401054 76.85114 82.30123 87.75132 93.20141 98.6515 104.101585 109.551674 115.00176 120.45185 125.90194 131.35202 136.80211 142.2522 147.70229 153.15237 158.60246 164.05255 169.50264 174.95273" y="44.277" style="fill:#ff8d00;font-family:monospace">
                    =@@@@@@@@@- #@@@@@@@@@%
                </text><text x="49.6007 55.05079 60.500877 65.950966 71.401054 76.85114 82.30123 87.75132 93.20141 98.6515 104.101585 109.551674 115.00176 120.45185 125.90194 131.35202 136.80211 142.2522 147.70229 153.15237 158.60246 164.05255 169.50264 174.95273" y="54.777" style="fill:#ff8d00;font-family:monospace">
                    .@@@@@@@@@@- =@@@@@@@@%.
                </text><text x="49.6007 55.05079 60.500877 65.950966 71.401054 76.85114 82.30123 87.75132 93.20141 98.6515 104.101585 109.551674 125.90194 131.35202 136.80211 142.2522 147.70229 153.15237 158.60246 164.05255 169.50264 180.40282 185.8529 191.303 196.75308 202.20317 207.65326 213.10335 218.55344 224.00352" y="65.277" style="fill:#ff8d00;font-family:monospace">
                    .@@@@@@@@@# =%@@@@#= -*%@@@%#=
                </text><text x="55.05079 60.500877 65.950966 71.401054 76.85114 82.30123 87.75132 93.20141 98.6515 104.101585 120.45185 125.90194 131.35202 136.80211 142.2522 147.70229 153.15237 169.50264 174.95273 180.40282 185.8529 191.303 196.75308 202.20317 207.65326 213.10335 218.55344 224.00352 229.45361" y="75.777" style="fill:#fe0;font-family:monospace">
                    =@@@@@@@= ...:.. :%@@@@@@@@@*
                </text><text x="65.950966 71.401054 76.85114 82.30123 87.75132 93.20141 98.6515 104.101585 109.551674 115.00176 120.45185 125.90194 131.35202 136.80211 142.2522 147.70229 153.15237 164.05255 169.50264 174.95273 180.40282 185.8529 191.303 196.75308 202.20317 207.65326 213.10335 218.55344 224.00352 229.45361" y="86.277" style="fill:#fe0;font-family:monospace">
                    -++=-.:+%@@@@%*: :@@@@@@@@@@@#
                </text><text x="38.700523 44.15061 49.6007 55.05079 60.500877 65.950966 71.401054 76.85114 82.30123 87.75132 93.20141 98.6515 104.101585 109.551674 115.00176 120.45185 125.90194 131.35202 136.80211 142.2522 147.70229 153.15237 158.60246 164.05255 169.50264 174.95273 180.40282 185.8529 191.303 196.75308 202.20317 207.65326 213.10335 218.55344 224.00352 229.45361" y="96.777" style="fill:#fe0;font-family:monospace">
                    :-+++==++#@@@@@@@@@@@* -@@@@@@@@@@%.
                </text><text x="27.800346 33.250435 38.700523 44.15061 49.6007 55.05079 60.500877 65.950966 71.401054 76.85114 82.30123 87.75132 93.20141 98.6515 104.101585 109.551674 115.00176 120.45185 125.90194 131.35202 136.80211 142.2522 147.70229 153.15237 158.60246 164.05255 169.50264 174.95273 180.40282 185.8529 191.303 196.75308 202.20317 207.65326 213.10335 218.55344" y="107.277" style="fill:#028121;font-family:monospace">
                    :%@@@@@@@@@@@@@@@@@@@@@@- =%@@@@@@#=
                </text><text x="27.800346 33.250435 38.700523 44.15061 49.6007 55.05079 60.500877 65.950966 71.401054 76.85114 82.30123 87.75132 93.20141 98.6515 104.101585 109.551674 115.00176 120.45185 125.90194 131.35202 136.80211 142.2522 147.70229 153.15237 158.60246 164.05255 180.40282 185.8529 191.303 196.75308 202.20317" y="117.777" style="fill:#028121;font-family:monospace">
                    @@@@@@@@@@@@@@@@@@@@@@@@: .:-:.
                </text><text x="27.800346 33.250435 38.700523 44.15061 49.6007 55.05079 60.500877 65.950966 71.401054 76.85114 82.30123 87.75132 93.20141 98.6515 104.101585 109.551674 115.00176 120.45185 125.90194 131.35202 136.80211 142.2522 147.70229 153.15237 158.60246 169.50264 174.95273 180.40282 185.8529 191.303 196.75308 202.20317 207.65326" y="128.277" style="fill:#028121;font-family:monospace">
                    +@@@@@@@@@@@@@@@@@@@@@@= :=+**+-.
                </text><text x="33.250435 38.700523 44.15061 49.6007 55.05079 60.500877 65.950966 71.401054 76.85114 82.30123 87.75132 93.20141 98.6515 104.101585 109.551674 115.00176 120.45185 125.90194 131.35202 136.80211 142.2522 147.70229 153.15237 158.60246 164.05255 169.50264 174.95273 180.40282 185.8529 191.303 196.75308 202.20317 207.65326 213.10335" y="138.777" style="fill:#004cff;font-family:monospace">
                    -#@@@@@@@@@@@@@@@@@@@- +%@@@@@@@@+
                </text><text x="44.15061 49.6007 55.05079 60.500877 65.950966 71.401054 76.85114 82.30123 87.75132 93.20141 98.6515 104.101585 109.551674 115.00176 120.45185 125.90194 131.35202 136.80211 142.2522 147.70229 153.15237 158.60246 164.05255 169.50264 174.95273 180.40282 185.8529 191.303 196.75308 202.20317 207.65326 213.10335 218.55344" y="149.277" style="fill:#004cff;font-family:monospace">
                    .=%@@@@@@@@@@@@@@@+ #@@@@@@@@@@@.
                </text><text x="60.500877 65.950966 71.401054 76.85114 82.30123 87.75132 93.20141 98.6515 104.101585 109.551674 115.00176 120.45185 125.90194 131.35202 136.80211 142.2522 147.70229 153.15237 158.60246 164.05255 169.50264 174.95273 180.40282 185.8529 191.303 196.75308 202.20317 207.65326 213.10335" y="159.777" style="fill:#004cff;font-family:monospace">
                    -#@@@@@@@@@@@@@..@@@@@@@@@@@#
                </text><text x="71.401054 76.85114 82.30123 87.75132 93.20141 98.6515 104.101585 109.551674 115.00176 120.45185 125.90194 131.35202 136.80211 142.2522 147.70229 153.15237 158.60246 164.05255 169.50264 174.95273 180.40282 185.8529 191.303 196.75308 202.20317 207.65326" y="170.277" style="fill:#708;font-family:monospace">
                    :#@@@@@@@@@@@: +@@@@@@@@%=
                </text><text x="82.30123 87.75132 93.20141 98.6515 104.101585 109.551674 115.00176 120.45185 125.90194 131.35202 136.80211 142.2522 147.70229 158.60246 164.05255 169.50264 174.95273 180.40282 185.8529 191.303 196.75308" y="180.777" style="fill:#708;font-family:monospace">
                    =@@@@@@@@@@. .-++++-.
                </text><text x="87.75132 93.20141 98.6515 104.101585 109.551674 115.00176 120.45185 125.90194 131.35202 136.80211" y="191.277" style="fill:#708;font-family:monospace">
                    .#@@@@@@@*
                </text><text x="98.6515 104.101585 109.551674 115.00176 120.45185 125.90194 131.35202" y="201.777" style="fill:#708;font-family:monospace">
                    -*%@@#=
                </text></g></g></svg>