<svg width="975" height="921" xmlns="http://www.w3.org/2000/svg"><g font-family="Courier" font-size="31.923"><text xml:space="preserve" x="659" y="40" fill="#e50000">=</text><text xml:space="preserve" x="635" y="40" fill="#e50000">#</text><text xml:space="preserve" x="608" y="40" fill="#e50000">%</text><text xml:space="preserve" x="584" y="40" fill="#e50000">%</text><text xml:space="preserve" x="560" y="40" fill="#e50000">#</text><text xml:space="preserve" x="535" y="40" fill="#e50000">*</text><text xml:space="preserve" x="508" y="40" fill="#e50000">-</text><text xml:space="preserve" x="684" y="89" fill="#e50000">*</text><text xml:space="preserve" x="659" y="89" fill="#e50000">@</text><text xml:space="preserve" x="635" y="89" fill="#e50000">@</text><text xml:space="preserve" x="608" y="89" fill="#e50000">@</text><text xml:space="preserve" x="584" y="89" fill="#e50000">@</text><text xml:space="preserve" x="560" y="89" fill="#e50000">@</text><text xml:space="preserve" x="535" y="89" fill="#e50000">@</text><text xml:space="preserve" x="508" y="89" fill="#e50000">@</text><text xml:space="preserve" x="484" y="89" fill="#e50000">%</text><text xml:space="preserve" x="462" y="89" fill="#e50000">:</text><text xml:space="preserve" x="338" y="89" fill="#e50000">.</text><text xml:space="preserve" x="311" y="89" fill="#e50000">=</text><text xml:space="preserve" x="287" y="89" fill="#e50000">+</text><text xml:space="preserve" x="262" y="89" fill="#e50000">+</text><text xml:space="preserve" x="235" y="89" fill="#e50000">=</text><text xml:space="preserve" x="211" y="89" fill="#e50000">:</text><text xml:space="preserve" x="711" y="135" fill="#e50000">.</text><text xml:space="preserve" x="684" y="135" fill="#e50000">@</text><text xml:space="preserve" x="659" y="135" fill="#e50000">@</text><text xml:space="preserve" x="635" y="135" fill="#e50000">@</text><text xml:space="preserve" x="608" y="135" fill="#e50000">@</text><text xml:space="preserve" x="584" y="135" fill="#e50000">@</text><text xml:space="preserve" x="560" y="135" fill="#e50000">@</text><text xml:space="preserve" x="535" y="135" fill="#e50000">@</text><text xml:space="preserve" x="508" y="135" fill="#e50000">@</text><text xml:space="preserve" x="484" y="135" fill="#e50000">@</text><text xml:space="preserve" x="462" y="135" fill="#e50000">@</text><text xml:space="preserve" x="438" y="135" fill="#e50000">:</text><text xml:space="preserve" x="362" y="135" fill="#e50000">+</text><text xml:space="preserve" x="338" y="135" fill="#e50000">@</text><text xml:space="preserve" x="311" y="135" fill="#e50000">@</text><text xml:space="preserve" x="287" y="135" fill="#e50000">@</text><text xml:space="preserve" x="262" y="135" fill="#e50000">@</text><text xml:space="preserve" x="235" y="135" fill="#e50000">@</text><text xml:space="preserve" x="211" y="135" fill="#e50000">@</text><text xml:space="preserve" x="187" y="135" fill="#e50000">%</text><text xml:space="preserve" x="162" y="135" fill="#e50000">-</text><text xml:space="preserve" x="684" y="184" fill="#ff8d00">%</text><text xml:space="preserve" x="659" y="184" fill="#ff8d00">@</text><text xml:space="preserve" x="635" y="184" fill="#ff8d00">@</text><text xml:space="preserve" x="608" y="184" fill="#ff8d00">@</text><text xml:space="preserve" x="584" y="184" fill="#ff8d00">@</text><text xml:space="preserve" x="560" y="184" fill="#ff8d00">@</text><text xml:space="preserve" x="535" y="184" fill="#ff8d00">@</text><text xml:space="preserve" x="508" y="184" fill="#ff8d00">@</text><text xml:space="preserve" x="484" y="184" fill="#ff8d00">@</text><text xml:space="preserve" x="462" y="184" fill="#ff8d00">@</text><text xml:space="preserve" x="438" y="184" fill="#ff8d00">#</text><text xml:space="preserve" x="386" y="184" fill="#ff8d00">-</text><text xml:space="preserve" x="362" y="184" fill="#ff8d00">@</text><text xml:space="preserve" x="338" y="184" fill="#ff8d00">@</text><text xml:space="preserve" x="311" y="184" fill="#ff8d00">@</text><text xml:space="preserve" x="287" y="184" fill="#ff8d00">@</text><text xml:space="preserve" x="262" y="184" fill="#ff8d00">@</text><text xml:space="preserve" x="235" y="184" fill="#ff8d00">@</text><text xml:space="preserve" x="211" y="184" fill="#ff8d00">@</text><text xml:space="preserve" x="187" y="184" fill="#ff8d00">@</text><text xml:space="preserve" x="162" y="184" fill="#ff8d00">@</text><text xml:space="preserve" x="135" y="184" fill="#ff8d00">=</text><text xml:space="preserve" x="684" y="231" fill="#ff8d00">.</text><text xml:space="preserve" x="659" y="231" fill="#ff8d00">%</text><text xml:space="preserve" x="635" y="231" fill="#ff8d00">@</text><text xml:space="preserve" x="608" y="231" fill="#ff8d00">@</text><text xml:space="preserve" x="584" y="231" fill="#ff8d00">@</text><text xml:space="preserve" x="560" y="231" fill="#ff8d00">@</text><text xml:space="preserve" x="535" y="231" fill="#ff8d00">@</text><text xml:space="preserve" x="508" y="231" fill="#ff8d00">@</text><text xml:space="preserve" x="484" y="231" fill="#ff8d00">@</text><text xml:space="preserve" x="462" y="231" fill="#ff8d00">@</text><text xml:space="preserve" x="438" y="231" fill="#ff8d00">=</text><text xml:space="preserve" x="386" y="231" fill="#ff8d00">-</text><text xml:space="preserve" x="362" y="231" fill="#ff8d00">@</text><text xml:space="preserve" x="338" y="231" fill="#ff8d00">@</text><text xml:space="preserve" x="311" y="231" fill="#ff8d00">@</text><text xml:space="preserve" x="287" y="231" fill="#ff8d00">@</text><text xml:space="preserve" x="262" y="231" fill="#ff8d00">@</text><text xml:space="preserve" x="235" y="231" fill="#ff8d00">@</text><text xml:space="preserve" x="211" y="231" fill="#ff8d00">@</text><text xml:space="preserve" x="187" y="231" fill="#ff8d00">@</text><text xml:space="preserve" x="162" y="231" fill="#ff8d00">@</text><text xml:space="preserve" x="135" y="231" fill="#ff8d00">@</text><text xml:space="preserve" x="111" y="231" fill="#ff8d00">.</text><text xml:space="preserve" x="908" y="279" fill="#ff8d00">=</text><text xml:space="preserve" x="881" y="279" fill="#ff8d00">#</text><text xml:space="preserve" x="857" y="279" fill="#ff8d00">%</text><text xml:space="preserve" x="835" y="279" fill="#ff8d00">@</text><text xml:space="preserve" x="811" y="279" fill="#ff8d00">@</text><text xml:space="preserve" x="784" y="279" fill="#ff8d00">@</text><text xml:space="preserve" x="759" y="279" fill="#ff8d00">%</text><text xml:space="preserve" x="735" y="279" fill="#ff8d00">*</text><text xml:space="preserve" x="711" y="279" fill="#ff8d00">-</text><text xml:space="preserve" x="635" y="279" fill="#ff8d00">=</text><text xml:space="preserve" x="608" y="279" fill="#ff8d00">#</text><text xml:space="preserve" x="584" y="279" fill="#ff8d00">@</text><text xml:space="preserve" x="560" y="279" fill="#ff8d00">@</text><text xml:space="preserve" x="535" y="279" fill="#ff8d00">@</text><text xml:space="preserve" x="508" y="279" fill="#ff8d00">@</text><text xml:space="preserve" x="484" y="279" fill="#ff8d00">%</text><text xml:space="preserve" x="462" y="279" fill="#ff8d00">=</text><text xml:space="preserve" x="362" y="279" fill="#ff8d00">#</text><text xml:space="preserve" x="338" y="279" fill="#ff8d00">@</text><text xml:space="preserve" x="311" y="279" fill="#ff8d00">@</text><text xml:space="preserve" x="287" y="279" fill="#ff8d00">@</text><text xml:space="preserve" x="262" y="279" fill="#ff8d00">@</text><text xml:space="preserve" x="235" y="279" fill="#ff8d00">@</text><text xml:space="preserve" x="211" y="279" fill="#ff8d00">@</text><text xml:space="preserve" x="187" y="279" fill="#ff8d00">@</text><text xml:space="preserve" x="162" y="279" fill="#ff8d00">@</text><text xml:space="preserve" x="135" y="279" fill="#ff8d00">@</text><text xml:space="preserve" x="111" y="279" fill="#ff8d00">.</text><text xml:space="preserve" x="932" y="328" fill="#fe0">*</text><text xml:space="preserve" x="908" y="328" fill="#fe0">@</text><text xml:space="preserve" x="881" y="328" fill="#fe0">@</text><text xml:space="preserve" x="857" y="328" fill="#fe0">@</text><text xml:space="preserve" x="835" y="328" fill="#fe0">@</text><text xml:space="preserve" x="811" y="328" fill="#fe0">@</text><text xml:space="preserve" x="784" y="328" fill="#fe0">@</text><text xml:space="preserve" x="759" y="328" fill="#fe0">@</text><text xml:space="preserve" x="735" y="328" fill="#fe0">@</text><text xml:space="preserve" x="711" y="328" fill="#fe0">@</text><text xml:space="preserve" x="684" y="328" fill="#fe0">%</text><text xml:space="preserve" x="659" y="328" fill="#fe0">:</text><text xml:space="preserve" x="560" y="328" fill="#fe0">.</text><text xml:space="preserve" x="535" y="328" fill="#fe0">.</text><text xml:space="preserve" x="508" y="328" fill="#fe0">:</text><text xml:space="preserve" x="484" y="328" fill="#fe0">.</text><text xml:space="preserve" x="462" y="328" fill="#fe0">.</text><text xml:space="preserve" x="438" y="328" fill="#fe0">.</text><text xml:space="preserve" x="338" y="328" fill="#fe0">=</text><text xml:space="preserve" x="311" y="328" fill="#fe0">@</text><text xml:space="preserve" x="287" y="328" fill="#fe0">@</text><text xml:space="preserve" x="262" y="328" fill="#fe0">@</text><text xml:space="preserve" x="235" y="328" fill="#fe0">@</text><text xml:space="preserve" x="211" y="328" fill="#fe0">@</text><text xml:space="preserve" x="187" y="328" fill="#fe0">@</text><text xml:space="preserve" x="162" y="328" fill="#fe0">@</text><text xml:space="preserve" x="135" y="328" fill="#fe0">=</text><text xml:space="preserve" x="932" y="374" fill="#fe0">#</text><text xml:space="preserve" x="908" y="374" fill="#fe0">@</text><text xml:space="preserve" x="881" y="374" fill="#fe0">@</text><text xml:space="preserve" x="857" y="374" fill="#fe0">@</text><text xml:space="preserve" x="835" y="374" fill="#fe0">@</text><text xml:space="preserve" x="811" y="374" fill="#fe0">@</text><text xml:space="preserve" x="784" y="374" fill="#fe0">@</text><text xml:space="preserve" x="759" y="374" fill="#fe0">@</text><text xml:space="preserve" x="735" y="374" fill="#fe0">@</text><text xml:space="preserve" x="711" y="374" fill="#fe0">@</text><text xml:space="preserve" x="684" y="374" fill="#fe0">@</text><text xml:space="preserve" x="659" y="374" fill="#fe0">@</text><text xml:space="preserve" x="635" y="374" fill="#fe0">:</text><text xml:space="preserve" x="560" y="374" fill="#fe0">:</text><text xml:space="preserve" x="535" y="374" fill="#fe0">*</text><text xml:space="preserve" x="508" y="374" fill="#fe0">%</text><text xml:space="preserve" x="484" y="374" fill="#fe0">@</text><text xml:space="preserve" x="462" y="374" fill="#fe0">@</text><text xml:space="preserve" x="438" y="374" fill="#fe0">@</text><text xml:space="preserve" x="411" y="374" fill="#fe0">@</text><text xml:space="preserve" x="386" y="374" fill="#fe0">%</text><text xml:space="preserve" x="362" y="374" fill="#fe0">+</text><text xml:space="preserve" x="338" y="374" fill="#fe0">:</text><text xml:space="preserve" x="311" y="374" fill="#fe0">.</text><text xml:space="preserve" x="287" y="374" fill="#fe0">-</text><text xml:space="preserve" x="262" y="374" fill="#fe0">=</text><text xml:space="preserve" x="235" y="374" fill="#fe0">+</text><text xml:space="preserve" x="211" y="374" fill="#fe0">+</text><text xml:space="preserve" x="187" y="374" fill="#fe0">-</text><text xml:space="preserve" x="932" y="423" fill="#fe0">.</text><text xml:space="preserve" x="908" y="423" fill="#fe0">%</text><text xml:space="preserve" x="881" y="423" fill="#fe0">@</text><text xml:space="preserve" x="857" y="423" fill="#fe0">@</text><text xml:space="preserve" x="835" y="423" fill="#fe0">@</text><text xml:space="preserve" x="811" y="423" fill="#fe0">@</text><text xml:space="preserve" x="784" y="423" fill="#fe0">@</text><text xml:space="preserve" x="759" y="423" fill="#fe0">@</text><text xml:space="preserve" x="735" y="423" fill="#fe0">@</text><text xml:space="preserve" x="711" y="423" fill="#fe0">@</text><text xml:space="preserve" x="684" y="423" fill="#fe0">@</text><text xml:space="preserve" x="659" y="423" fill="#fe0">@</text><text xml:space="preserve" x="635" y="423" fill="#fe0">-</text><text xml:space="preserve" x="584" y="423" fill="#fe0">*</text><text xml:space="preserve" x="560" y="423" fill="#fe0">@</text><text xml:space="preserve" x="535" y="423" fill="#fe0">@</text><text xml:space="preserve" x="508" y="423" fill="#fe0">@</text><text xml:space="preserve" x="484" y="423" fill="#fe0">@</text><text xml:space="preserve" x="462" y="423" fill="#fe0">@</text><text xml:space="preserve" x="438" y="423" fill="#fe0">@</text><text xml:space="preserve" x="411" y="423" fill="#fe0">@</text><text xml:space="preserve" x="386" y="423" fill="#fe0">@</text><text xml:space="preserve" x="362" y="423" fill="#fe0">@</text><text xml:space="preserve" x="338" y="423" fill="#fe0">@</text><text xml:space="preserve" x="311" y="423" fill="#fe0">@</text><text xml:space="preserve" x="287" y="423" fill="#fe0">#</text><text xml:space="preserve" x="262" y="423" fill="#fe0">+</text><text xml:space="preserve" x="235" y="423" fill="#fe0">+</text><text xml:space="preserve" x="211" y="423" fill="#fe0">=</text><text xml:space="preserve" x="187" y="423" fill="#fe0">=</text><text xml:space="preserve" x="162" y="423" fill="#fe0">+</text><text xml:space="preserve" x="135" y="423" fill="#fe0">+</text><text xml:space="preserve" x="111" y="423" fill="#fe0">+</text><text xml:space="preserve" x="89" y="423" fill="#fe0">-</text><text xml:space="preserve" x="65" y="423" fill="#fe0">:</text><text xml:space="preserve" x="881" y="472" fill="#028121">=</text><text xml:space="preserve" x="857" y="472" fill="#028121">#</text><text xml:space="preserve" x="835" y="472" fill="#028121">@</text><text xml:space="preserve" x="811" y="472" fill="#028121">@</text><text xml:space="preserve" x="784" y="472" fill="#028121">@</text><text xml:space="preserve" x="759" y="472" fill="#028121">@</text><text xml:space="preserve" x="735" y="472" fill="#028121">@</text><text xml:space="preserve" x="711" y="472" fill="#028121">@</text><text xml:space="preserve" x="684" y="472" fill="#028121">%</text><text xml:space="preserve" x="659" y="472" fill="#028121">=</text><text xml:space="preserve" x="608" y="472" fill="#028121">-</text><text xml:space="preserve" x="584" y="472" fill="#028121">@</text><text xml:space="preserve" x="560" y="472" fill="#028121">@</text><text xml:space="preserve" x="535" y="472" fill="#028121">@</text><text xml:space="preserve" x="508" y="472" fill="#028121">@</text><text xml:space="preserve" x="484" y="472" fill="#028121">@</text><text xml:space="preserve" x="462" y="472" fill="#028121">@</text><text xml:space="preserve" x="438" y="472" fill="#028121">@</text><text xml:space="preserve" x="411" y="472" fill="#028121">@</text><text xml:space="preserve" x="386" y="472" fill="#028121">@</text><text xml:space="preserve" x="362" y="472" fill="#028121">@</text><text xml:space="preserve" x="338" y="472" fill="#028121">@</text><text xml:space="preserve" x="311" y="472" fill="#028121">@</text><text xml:space="preserve" x="287" y="472" fill="#028121">@</text><text xml:space="preserve" x="262" y="472" fill="#028121">@</text><text xml:space="preserve" x="235" y="472" fill="#028121">@</text><text xml:space="preserve" x="211" y="472" fill="#028121">@</text><text xml:space="preserve" x="187" y="472" fill="#028121">@</text><text xml:space="preserve" x="162" y="472" fill="#028121">@</text><text xml:space="preserve" x="135" y="472" fill="#028121">@</text><text xml:space="preserve" x="111" y="472" fill="#028121">@</text><text xml:space="preserve" x="89" y="472" fill="#028121">@</text><text xml:space="preserve" x="65" y="472" fill="#028121">@</text><text xml:space="preserve" x="38" y="472" fill="#028121">%</text><text xml:space="preserve" x="14" y="472" fill="#028121">:</text><text xml:space="preserve" x="811" y="518" fill="#028121">.</text><text xml:space="preserve" x="784" y="518" fill="#028121">:</text><text xml:space="preserve" x="759" y="518" fill="#028121">-</text><text xml:space="preserve" x="735" y="518" fill="#028121">:</text><text xml:space="preserve" x="711" y="518" fill="#028121">.</text><text xml:space="preserve" x="608" y="518" fill="#028121">:</text><text xml:space="preserve" x="584" y="518" fill="#028121">@</text><text xml:space="preserve" x="560" y="518" fill="#028121">@</text><text xml:space="preserve" x="535" y="518" fill="#028121">@</text><text xml:space="preserve" x="508" y="518" fill="#028121">@</text><text xml:space="preserve" x="484" y="518" fill="#028121">@</text><text xml:space="preserve" x="462" y="518" fill="#028121">@</text><text xml:space="preserve" x="438" y="518" fill="#028121">@</text><text xml:space="preserve" x="411" y="518" fill="#028121">@</text><text xml:space="preserve" x="386" y="518" fill="#028121">@</text><text xml:space="preserve" x="362" y="518" fill="#028121">@</text><text xml:space="preserve" x="338" y="518" fill="#028121">@</text><text xml:space="preserve" x="311" y="518" fill="#028121">@</text><text xml:space="preserve" x="287" y="518" fill="#028121">@</text><text xml:space="preserve" x="262" y="518" fill="#028121">@</text><text xml:space="preserve" x="235" y="518" fill="#028121">@</text><text xml:space="preserve" x="211" y="518" fill="#028121">@</text><text xml:space="preserve" x="187" y="518" fill="#028121">@</text><text xml:space="preserve" x="162" y="518" fill="#028121">@</text><text xml:space="preserve" x="135" y="518" fill="#028121">@</text><text xml:space="preserve" x="111" y="518" fill="#028121">@</text><text xml:space="preserve" x="89" y="518" fill="#028121">@</text><text xml:space="preserve" x="65" y="518" fill="#028121">@</text><text xml:space="preserve" x="38" y="518" fill="#028121">@</text><text xml:space="preserve" x="14" y="518" fill="#028121">@</text><text xml:space="preserve" x="835" y="567" fill="#028121">.</text><text xml:space="preserve" x="811" y="567" fill="#028121">-</text><text xml:space="preserve" x="784" y="567" fill="#028121">+</text><text xml:space="preserve" x="759" y="567" fill="#028121">*</text><text xml:space="preserve" x="735" y="567" fill="#028121">*</text><text xml:space="preserve" x="711" y="567" fill="#028121">+</text><text xml:space="preserve" x="684" y="567" fill="#028121">=</text><text xml:space="preserve" x="659" y="567" fill="#028121">:</text><text xml:space="preserve" x="584" y="567" fill="#028121">=</text><text xml:space="preserve" x="560" y="567" fill="#028121">@</text><text xml:space="preserve" x="535" y="567" fill="#028121">@</text><text xml:space="preserve" x="508" y="567" fill="#028121">@</text><text xml:space="preserve" x="484" y="567" fill="#028121">@</text><text xml:space="preserve" x="462" y="567" fill="#028121">@</text><text xml:space="preserve" x="438" y="567" fill="#028121">@</text><text xml:space="preserve" x="411" y="567" fill="#028121">@</text><text xml:space="preserve" x="386" y="567" fill="#028121">@</text><text xml:space="preserve" x="362" y="567" fill="#028121">@</text><text xml:space="preserve" x="338" y="567" fill="#028121">@</text><text xml:space="preserve" x="311" y="567" fill="#028121">@</text><text xml:space="preserve" x="287" y="567" fill="#028121">@</text><text xml:space="preserve" x="262" y="567" fill="#028121">@</text><text xml:space="preserve" x="235" y="567" fill="#028121">@</text><text xml:space="preserve" x="211" y="567" fill="#028121">@</text><text xml:space="preserve" x="187" y="567" fill="#028121">@</text><text xml:space="preserve" x="162" y="567" fill="#028121">@</text><text xml:space="preserve" x="135" y="567" fill="#028121">@</text><text xml:space="preserve" x="111" y="567" fill="#028121">@</text><text xml:space="preserve" x="89" y="567" fill="#028121">@</text><text xml:space="preserve" x="65" y="567" fill="#028121">@</text><text xml:space="preserve" x="38" y="567" fill="#028121">@</text><text xml:space="preserve" x="14" y="567" fill="#028121">+</text><text xml:space="preserve" x="857" y="615" fill="#004cff">+</text><text xml:space="preserve" x="835" y="615" fill="#004cff">@</text><text xml:space="preserve" x="811" y="615" fill="#004cff">@</text><text xml:space="preserve" x="784" y="615" fill="#004cff">@</text><text xml:space="preserve" x="759" y="615" fill="#004cff">@</text><text xml:space="preserve" x="735" y="615" fill="#004cff">@</text><text xml:space="preserve" x="711" y="615" fill="#004cff">@</text><text xml:space="preserve" x="684" y="615" fill="#004cff">@</text><text xml:space="preserve" x="659" y="615" fill="#004cff">@</text><text xml:space="preserve" x="635" y="615" fill="#004cff">%</text><text xml:space="preserve" x="608" y="615" fill="#004cff">+</text><text xml:space="preserve" x="560" y="615" fill="#004cff">-</text><text xml:space="preserve" x="535" y="615" fill="#004cff">@</text><text xml:space="preserve" x="508" y="615" fill="#004cff">@</text><text xml:space="preserve" x="484" y="615" fill="#004cff">@</text><text xml:space="preserve" x="462" y="615" fill="#004cff">@</text><text xml:space="preserve" x="438" y="615" fill="#004cff">@</text><text xml:space="preserve" x="411" y="615" fill="#004cff">@</text><text xml:space="preserve" x="386" y="615" fill="#004cff">@</text><text xml:space="preserve" x="362" y="615" fill="#004cff">@</text><text xml:space="preserve" x="338" y="615" fill="#004cff">@</text><text xml:space="preserve" x="311" y="615" fill="#004cff">@</text><text xml:space="preserve" x="287" y="615" fill="#004cff">@</text><text xml:space="preserve" x="262" y="615" fill="#004cff">@</text><text xml:space="preserve" x="235" y="615" fill="#004cff">@</text><text xml:space="preserve" x="211" y="615" fill="#004cff">@</text><text xml:space="preserve" x="187" y="615" fill="#004cff">@</text><text xml:space="preserve" x="162" y="615" fill="#004cff">@</text><text xml:space="preserve" x="135" y="615" fill="#004cff">@</text><text xml:space="preserve" x="111" y="615" fill="#004cff">@</text><text xml:space="preserve" x="89" y="615" fill="#004cff">@</text><text xml:space="preserve" x="65" y="615" fill="#004cff">#</text><text xml:space="preserve" x="38" y="615" fill="#004cff">-</text><text xml:space="preserve" x="881" y="662" fill="#004cff">.</text><text xml:space="preserve" x="857" y="662" fill="#004cff">@</text><text xml:space="preserve" x="835" y="662" fill="#004cff">@</text><text xml:space="preserve" x="811" y="662" fill="#004cff">@</text><text xml:space="preserve" x="784" y="662" fill="#004cff">@</text><text xml:space="preserve" x="759" y="662" fill="#004cff">@</text><text xml:space="preserve" x="735" y="662" fill="#004cff">@</text><text xml:space="preserve" x="711" y="662" fill="#004cff">@</text><text xml:space="preserve" x="684" y="662" fill="#004cff">@</text><text xml:space="preserve" x="659" y="662" fill="#004cff">@</text><text xml:space="preserve" x="635" y="662" fill="#004cff">@</text><text xml:space="preserve" x="608" y="662" fill="#004cff">@</text><text xml:space="preserve" x="584" y="662" fill="#004cff">#</text><text xml:space="preserve" x="535" y="662" fill="#004cff">+</text><text xml:space="preserve" x="508" y="662" fill="#004cff">@</text><text xml:space="preserve" x="484" y="662" fill="#004cff">@</text><text xml:space="preserve" x="462" y="662" fill="#004cff">@</text><text xml:space="preserve" x="438" y="662" fill="#004cff">@</text><text xml:space="preserve" x="411" y="662" fill="#004cff">@</text><text xml:space="preserve" x="386" y="662" fill="#004cff">@</text><text xml:space="preserve" x="362" y="662" fill="#004cff">@</text><text xml:space="preserve" x="338" y="662" fill="#004cff">@</text><text xml:space="preserve" x="311" y="662" fill="#004cff">@</text><text xml:space="preserve" x="287" y="662" fill="#004cff">@</text><text xml:space="preserve" x="262" y="662" fill="#004cff">@</text><text xml:space="preserve" x="235" y="662" fill="#004cff">@</text><text xml:space="preserve" x="211" y="662" fill="#004cff">@</text><text xml:space="preserve" x="187" y="662" fill="#004cff">@</text><text xml:space="preserve" x="162" y="662" fill="#004cff">@</text><text xml:space="preserve" x="135" y="662" fill="#004cff">%</text><text xml:space="preserve" x="111" y="662" fill="#004cff">=</text><text xml:space="preserve" x="89" y="662" fill="#004cff">.</text><text xml:space="preserve" x="857" y="710" fill="#004cff">#</text><text xml:space="preserve" x="835" y="710" fill="#004cff">@</text><text xml:space="preserve" x="811" y="710" fill="#004cff">@</text><text xml:space="preserve" x="784" y="710" fill="#004cff">@</text><text xml:space="preserve" x="759" y="710" fill="#004cff">@</text><text xml:space="preserve" x="735" y="710" fill="#004cff">@</text><text xml:space="preserve" x="711" y="710" fill="#004cff">@</text><text xml:space="preserve" x="684" y="710" fill="#004cff">@</text><text xml:space="preserve" x="659" y="710" fill="#004cff">@</text><text xml:space="preserve" x="635" y="710" fill="#004cff">@</text><text xml:space="preserve" x="608" y="710" fill="#004cff">@</text><text xml:space="preserve" x="584" y="710" fill="#004cff">@</text><text xml:space="preserve" x="560" y="710" fill="#004cff">.</text><text xml:space="preserve" x="535" y="710" fill="#004cff">.</text><text xml:space="preserve" x="508" y="710" fill="#004cff">@</text><text xml:space="preserve" x="484" y="710" fill="#004cff">@</text><text xml:space="preserve" x="462" y="710" fill="#004cff">@</text><text xml:space="preserve" x="438" y="710" fill="#004cff">@</text><text xml:space="preserve" x="411" y="710" fill="#004cff">@</text><text xml:space="preserve" x="386" y="710" fill="#004cff">@</text><text xml:space="preserve" x="362" y="710" fill="#004cff">@</text><text xml:space="preserve" x="338" y="710" fill="#004cff">@</text><text xml:space="preserve" x="311" y="710" fill="#004cff">@</text><text xml:space="preserve" x="287" y="710" fill="#004cff">@</text><text xml:space="preserve" x="262" y="710" fill="#004cff">@</text><text xml:space="preserve" x="235" y="710" fill="#004cff">@</text><text xml:space="preserve" x="211" y="710" fill="#004cff">@</text><text xml:space="preserve" x="187" y="710" fill="#004cff">#</text><text xml:space="preserve" x="162" y="710" fill="#004cff">-</text><text xml:space="preserve" x="835" y="759" fill="#708">=</text><text xml:space="preserve" x="811" y="759" fill="#708">%</text><text xml:space="preserve" x="784" y="759" fill="#708">@</text><text xml:space="preserve" x="759" y="759" fill="#708">@</text><text xml:space="preserve" x="735" y="759" fill="#708">@</text><text xml:space="preserve" x="711" y="759" fill="#708">@</text><text xml:space="preserve" x="684" y="759" fill="#708">@</text><text xml:space="preserve" x="659" y="759" fill="#708">@</text><text xml:space="preserve" x="635" y="759" fill="#708">@</text><text xml:space="preserve" x="608" y="759" fill="#708">@</text><text xml:space="preserve" x="584" y="759" fill="#708">+</text><text xml:space="preserve" x="535" y="759" fill="#708">:</text><text xml:space="preserve" x="508" y="759" fill="#708">@</text><text xml:space="preserve" x="484" y="759" fill="#708">@</text><text xml:space="preserve" x="462" y="759" fill="#708">@</text><text xml:space="preserve" x="438" y="759" fill="#708">@</text><text xml:space="preserve" x="411" y="759" fill="#708">@</text><text xml:space="preserve" x="386" y="759" fill="#708">@</text><text xml:space="preserve" x="362" y="759" fill="#708">@</text><text xml:space="preserve" x="338" y="759" fill="#708">@</text><text xml:space="preserve" x="311" y="759" fill="#708">@</text><text xml:space="preserve" x="287" y="759" fill="#708">@</text><text xml:space="preserve" x="262" y="759" fill="#708">@</text><text xml:space="preserve" x="235" y="759" fill="#708">#</text><text xml:space="preserve" x="211" y="759" fill="#708">:</text><text xml:space="preserve" x="784" y="806" fill="#708">.</text><text xml:space="preserve" x="759" y="806" fill="#708">-</text><text xml:space="preserve" x="735" y="806" fill="#708">+</text><text xml:space="preserve" x="711" y="806" fill="#708">+</text><text xml:space="preserve" x="684" y="806" fill="#708">+</text><text xml:space="preserve" x="659" y="806" fill="#708">+</text><text xml:space="preserve" x="635" y="806" fill="#708">-</text><text xml:space="preserve" x="608" y="806" fill="#708">.</text><text xml:space="preserve" x="535" y="806" fill="#708">.</text><text xml:space="preserve" x="508" y="806" fill="#708">@</text><text xml:space="preserve" x="484" y="806" fill="#708">@</text><text xml:space="preserve" x="462" y="806" fill="#708">@</text><text xml:space="preserve" x="438" y="806" fill="#708">@</text><text xml:space="preserve" x="411" y="806" fill="#708">@</text><text xml:space="preserve" x="386" y="806" fill="#708">@</text><text xml:space="preserve" x="362" y="806" fill="#708">@</text><text xml:space="preserve" x="338" y="806" fill="#708">@</text><text xml:space="preserve" x="311" y="806" fill="#708">@</text><text xml:space="preserve" x="287" y="806" fill="#708">@</text><text xml:space="preserve" x="262" y="806" fill="#708">=</text><text xml:space="preserve" x="508" y="854" fill="#708">*</text><text xml:space="preserve" x="484" y="854" fill="#708">@</text><text xml:space="preserve" x="462" y="854" fill="#708">@</text><text xml:space="preserve" x="438" y="854" fill="#708">@</text><text xml:space="preserve" x="411" y="854" fill="#708">@</text><text xml:space="preserve" x="386" y="854" fill="#708">@</text><text xml:space="preserve" x="362" y="854" fill="#708">@</text><text xml:space="preserve" x="338" y="854" fill="#708">@</text><text xml:space="preserve" x="311" y="854" fill="#708">#</text><text xml:space="preserve" x="287" y="854" fill="#708">.</text><text xml:space="preserve" x="484" y="903" fill="#708">=</text><text xml:space="preserve" x="462" y="903" fill="#708">#</text><text xml:space="preserve" x="438" y="903" fill="#708">@</text><text xml:space="preserve" x="411" y="903" fill="#708">@</text><text xml:space="preserve" x="386" y="903" fill="#708">%</text><text xml:space="preserve" x="362" y="903" fill="#708">*</text><text xml:space="preserve" x="338" y="903" fill="#708">-</text></g></svg>